Coordinates
version=1
nRows=16
nColumns=18
inDegrees=yes

Units are S.I. units (second, meters, Newtons, ...)
If the header above contains a line with 'inDegrees', this indicates whether rotational values are in degrees (yes) or radians (no).

endheader
time	ground_thorax_rot_x	ground_thorax_rot_y	ground_thorax_rot_z	ground_thorax_tx	ground_thorax_ty	ground_thorax_tz	clav_prot	clav_elev	scapula_abduction	scapula_elevation	scapula_upward_rot	scapula_winging	plane_elv	shoulder_elv	axial_rot	elbow_flexion	pro_sup
      1.39000000	      3.51895647	     -6.42910446	     -7.60322270	     -0.00637962	      0.00489584	      0.00403612	    -29.85177850	     -2.21326923	    -25.52668672	     -2.88096247	     12.85409724	      4.23082072	     -8.28704591	     15.19494069	     30.12496297	      0.00000000	     34.32000000
      1.40000000	      3.11539901	     -5.67451456	     -7.45980592	     -0.00610854	      0.00548126	      0.00302525	    -30.89335017	     -1.50609678	    -26.73736849	     -2.75069884	     14.09843439	      3.47645308	     -6.16628678	     13.03957740	     29.81704150	      0.00000000	     34.32000000
      1.41000000	      2.97247280	     -4.61263069	     -7.32977507	     -0.00602054	      0.00580809	      0.00227931	    -32.18039121	     -0.58696048	    -28.77806492	     -2.31311612	     14.70218289	      2.73503752	     -0.36059564	     11.72181327	     27.50542849	      0.00000000	     34.32000000
      1.42000000	      2.01825301	     -4.33938197	     -6.99464421	     -0.00559784	      0.00675184	      0.00091450	    -32.42200395	     -0.27722947	    -29.06384934	     -2.19035996	     15.05323945	      2.49034625	      0.18311824	     10.51990841	     27.24850578	      0.00000000	     34.32000000
      1.43000000	      2.43743151	     -3.51107830	     -7.34175897	     -0.00556353	      0.00640867	      0.00086324	    -33.89368814	      1.64163989	    -31.58639651	     -1.09783090	     15.92569149	      1.32490822	     12.91771213	     10.00843145	     15.63953316	      0.00000000	     34.32000000
      1.44000000	      2.26171536	     -3.19837716	     -7.26090067	     -0.00550638	      0.00670858	      0.00050557	    -34.49316211	      2.85578850	    -32.49404051	     -0.46144661	     16.76716402	      0.62082837	     18.35001791	      9.22171414	     11.00054169	      0.00000000	     34.32000000
      1.45000000	      2.11798277	     -2.49602531	     -7.05859160	     -0.00558429	      0.00715373	      0.00004769	    -35.10747630	      3.46857014	    -33.26828967	     -0.24165764	     17.47531528	      0.06718840	     18.82446906	      8.56946274	     10.31168644	      0.00000000	     34.32000000
      1.46000000	      1.92080354	     -2.49066080	     -7.07559850	     -0.00533560	      0.00742003	     -0.00002443	    -35.14937765	      3.52204580	    -33.27051777	     -0.24039157	     17.61126465	      0.00147085	     18.83056051	      8.69295114	     10.31317943	      0.00000000	     34.32000000
      1.47000000	      2.09206958	     -1.88176845	     -6.87292056	     -0.00562938	      0.00747037	     -0.00017036	    -35.78977508	      4.18978938	    -34.04906285	     -0.00422374	     18.40253057	     -0.60753730	     19.01680005	      8.19594549	      9.46855037	      0.00000000	     34.32000000
      1.48000000	      1.97167888	     -1.93330104	     -6.87516007	     -0.00556271	      0.00754602	     -0.00046023	    -35.83546678	      4.21374456	    -34.08870386	     -0.00698290	     18.46743446	     -0.64967477	     19.02518401	      8.25402655	      9.45816106	      0.00000000	     34.32000000
      1.49000000	      1.92059695	     -1.48779085	     -6.99305178	     -0.00551872	      0.00754400	     -0.00061214	    -36.55235005	      4.09614759	    -35.00111327	     -0.21340661	     18.68951323	     -0.99792847	     19.86777414	      7.95519794	      8.55392342	      0.00000000	     34.32000000
      1.50000000	      1.84899148	     -1.50069533	     -6.97858920	     -0.00540091	      0.00747517	     -0.00084584	    -36.57565890	      4.10427479	    -35.00945259	     -0.22156597	     18.73775643	     -1.02354128	     19.87729450	      7.99093604	      8.54890351	      0.00000000	     34.32000000
      1.51000000	      2.11505418	     -1.45080924	     -7.23967730	     -0.00535317	      0.00704717	     -0.00030925	    -37.09652343	      4.34337257	    -35.68591029	     -0.17913891	     19.08350517	     -1.39973219	     23.63654808	      8.16875034	      4.28998794	      0.00000000	     34.32000000
      1.52000000	      2.10541838	     -1.58912807	     -7.25172972	     -0.00550041	      0.00690840	     -0.00012085	    -37.14857843	      4.36103193	    -35.73883506	     -0.18398335	     19.13621693	     -1.44182128	     23.61010857	      8.20508432	      4.28725540	      0.00000000	     34.32000000
      1.53000000	      2.16922456	     -2.13694676	     -7.27650185	     -0.00547531	      0.00688451	      0.00011969	    -37.05050512	      4.39706617	    -35.33431363	     -0.25204962	     19.55551823	     -1.52502079	     23.36638437	      7.96952482	      4.21174350	      0.00000000	     34.32000000
      1.54000000	      2.07027098	     -2.28110671	     -7.28619466	     -0.00552613	      0.00701453	     -0.00002550	    -37.07137730	      4.45303251	    -35.39321412	     -0.21202302	     19.55110612	     -1.54393831	     23.35657161	      7.92294522	      4.20809865	      0.00000000	     34.32000000
